# xmcd
#
# Track frame offsets:
#	150
#	13842
#	29642
#	44095
#	58639
#	74424
#	90071
#	106004
#	120722
#	133703
#	148973
#	162487
#	176580
#	191493
#	207171
#	220607
#	235874
#	248939
#	264405
#	279277
#	295409
#	309382
#
# Disc length: 4336 seconds
#
# Revision: 0
# Processed by: cddbd v1.5.2PL0 Copyright (c) Steve Scherf et al.
# Submitted via: EZCDAudioConverter 3.1.0.1
#
DISCID=4910ee16
DTITLE=Nu Country Traxx 207 US
DYEAR=2016
DGENRE=country
TTITLE0=Dierks Bentley ft. Elle King - Different For Girls
TTITLE1=Thomas Rhett - Vacation
TTITLE2=Blake Shelton - She's Got A Way With Words
TTITLE3=Old Dominion - Song For Another Time
TTITLE4=Martina McBride - Just Around The Corner
TTITLE5=Steve Moakler - Suitcase
TTITLE6=Maren Morris - 80s Mercedes
TTITLE7=Chris Young ft. Vince Gill - Sober Saturday Night
TTITLE8=Michael Tyler - Crazy Last Night
TTITLE9=The Last Bandoleros - Where Do You Go
TTITLE10=Chase Bryant - Room To Breathe
TTITLE11=Eli Young Band - Saltwater Gospel
TTITLE12=Dylan Scott - My Girl
TTITLE13=Mickey Guyton - Heartbreak Song
TTITLE14=Hank Williams Jr. - The Party's On
TTITLE15=Joe Nichols - Undone
TTITLE16=Gary Allan - Do You Wish It Was Me
TTITLE17=Farewell Angelina - Shotgun Summer
TTITLE18=Tyler Steel - Middle Seat
TTITLE19=Exit 24 - Tennessee Tonight
TTITLE20=Simba Jordan - Country Thang
TTITLE21=Billy Lord - Netflix and Chill
EXTD=
EXTT0=
EXTT1=
EXTT2=
EXTT3=
EXTT4=
EXTT5=
EXTT6=
EXTT7=
EXTT8=
EXTT9=
EXTT10=
EXTT11=
EXTT12=
EXTT13=
EXTT14=
EXTT15=
EXTT16=
EXTT17=
EXTT18=
EXTT19=
EXTT20=
EXTT21=
PLAYORDER=
